<svg xmlns="http://www.w3.org/2000/svg" xmlns:xlink="http://www.w3.org/1999/xlink" xml:space="preserve" width="127.486mm" height="26.2153mm" version="1.1" style="shape-rendering:geometricPrecision; text-rendering:geometricPrecision; image-rendering:optimizeQuality; fill-rule:evenodd; clip-rule:evenodd" viewBox="0 0 13042 2682">
 <defs fill="#000000">
  <style type="text/css">

    .fil2 {fill:#00a0e3;fill-rule:nonzero}
    .fil1 {fill:#00a0e3;fill-rule:nonzero}
    .fil0 {fill:#ffffff;fill-rule:nonzero}
 
  </style>
 </defs>
 <g id="Layer_x0020_1">
  <metadata id="CorelCorpID_0Corel-Layer" fill="#000000"/>
  <g id="_403780464">
   <path class="fil0" d="M2065 48c-245,208 -208,523 -299,794 1,-281 2,-562 3,-842 -245,270 -160,606 -209,919 -39,-278 -78,-557 -116,-835 -248,326 -70,668 -66,1008 -67,-207 -134,-413 -204,-630 -79,142 -82,281 -39,421 42,135 123,341 170,475 -9,-5 -38,-56 -47,-67 -73,-123 -167,-285 -240,-408 -9,2 -5,31 -5,46 12,98 12,200 40,293 26,86 77,163 120,244 114,135 274,285 493,421l0 -69 0 -131 -1 -493 248 0c58,-376 124,-792 182,-1171 -10,8 -18,13 -30,25z" fill="#000000"/>
   <g>
    <path class="fil1" d="M994 1927c-148,40 -276,75 -415,113 114,138 221,96 415,-113z" fill="#000000"/>
    <path class="fil1" d="M842 1429c7,-8 -53,-83 -62,-100 -213,-279 -426,-557 -651,-850 -34,137 -44,255 45,342 190,183 472,431 668,608z" fill="#000000"/>
    <path class="fil1" d="M282 1814c111,166 314,156 562,-11 -189,4 -370,7 -562,11z" fill="#000000"/>
    <path class="fil1" d="M820 1669c-1,-7 -43,-23 -71,-33 -234,-50 -468,-101 -715,-154 46,117 113,186 216,191 165,7 405,-2 570,-4z" fill="#000000"/>
    <path class="fil1" d="M142 1299c177,68 480,163 661,222 -2,-9 -84,-53 -110,-69 -227,-144 -455,-288 -693,-438 8,149 48,248 142,285z" fill="#000000"/>
    <path class="fil1" d="M1277 2088c-53,58 -100,109 -156,170 127,18 157,-17 156,-170z" fill="#000000"/>
    <path class="fil1" d="M1173 1466c0,0 -1,-1 -1,-1 3,5 6,11 9,16 -336,-391 -492,-867 -630,-1367 -84,173 -98,390 -22,563 63,143 137,284 225,415 0,0 292,482 912,844l0 -49c-219,-136 -379,-286 -493,-421z" fill="#000000"/>
    <path class="fil1" d="M1085 1301c-2,-4 -5,-9 -7,-13 2,4 5,9 7,13z" fill="#000000"/>
    <path class="fil1" d="M839 2186c134,69 171,51 284,-149 -93,48 -185,97 -284,149z" fill="#000000"/>
    <path class="fil1" d="M1325 2285c116,-16 114,-88 106,-161 -31,47 -62,94 -106,161z" fill="#000000"/>
   </g>
   <g>
    <path class="fil0" d="M2452 2662l-375 0 0 -1079 -339 0 0 -307 1052 0 0 307 -338 0 0 1079zm910 -505l0 505 -375 0 0 -1386 455 0c377,0 565,136 565,409 0,161 -78,285 -235,373l404 604 -425 0 -294 -505 -95 0zm0 -281l70 0c131,0 197,-58 197,-174 0,-95 -65,-143 -193,-143l-74 0 0 317zm1790 786l-68 -260 -450 0 -70 260 -412 0 452 -1392 500 0 458 1392 -410 0zm-146 -567l-59 -228c-14,-50 -31,-116 -51,-196 -20,-80 -33,-138 -39,-173 -6,33 -17,86 -34,160 -17,74 -54,220 -112,437l295 0zm1407 -819l419 0 -454 1386 -441 0 -453 -1386 421 0 189 702c39,157 61,266 65,327 4,-44 13,-100 26,-166 14,-67 25,-119 35,-157l193 -706zm1392 1386l-823 0 0 -1386 823 0 0 301 -449 0 0 217 416 0 0 301 -416 0 0 262 449 0 0 305zm243 0l0 -1386 374 0 0 1083 534 0 0 303 -908 0z" fill="#000000"/>
    <path class="fil2" d="M9380 2662l-161 0 0 -1386 773 0 0 143 -612 0 0 507 575 0 0 144 -575 0 0 592zm841 0l0 -1386 162 0 0 1241 611 0 0 145 -773 0zm1303 -693l370 -693 174 0 -462 849 0 537 -163 0 0 -530 -462 -856 176 0 367 693zm1518 325c0,122 -45,217 -133,286 -89,68 -209,102 -361,102 -164,0 -291,-22 -379,-64l0 -156c57,24 119,43 186,57 67,14 133,21 199,21 108,0 189,-20 243,-61 54,-41 82,-97 82,-170 0,-48 -10,-87 -29,-118 -20,-31 -52,-59 -97,-85 -45,-26 -114,-55 -207,-88 -128,-46 -221,-101 -276,-164 -55,-63 -83,-146 -83,-248 0,-107 40,-192 120,-255 81,-63 187,-95 319,-95 138,0 265,25 380,76l-50 140c-114,-48 -226,-72 -334,-72 -85,0 -152,18 -200,55 -48,37 -72,88 -72,153 0,48 9,87 27,118 17,31 47,59 89,85 42,25 107,53 193,85 146,51 246,107 301,167 54,59 82,136 82,231z" fill="#000000"/>
   </g>
  </g>
 </g>
</svg>